<?xml version="1.0" encoding="UTF-8" standalone="no"?>
<!DOCTYPE svg PUBLIC "-//W3C//DTD SVG 1.1//EN"
 "http://www.w3.org/Graphics/SVG/1.1/DTD/svg11.dtd">
<!-- Generated by graphviz version 12.2.0 (0)
 -->
<!-- Title: nixstore Pages: 1 -->
<svg width="1228pt" height="900pt"
 viewBox="0.00 0.00 1228.14 900.45" xmlns="http://www.w3.org/2000/svg" xmlns:xlink="http://www.w3.org/1999/xlink">
<g id="graph0" class="graph" transform="scale(1 1) rotate(0) translate(4 896.45)">
<title>nixstore</title>
<polygon fill="white" stroke="none" points="-4,4 -4,-896.45 1224.14,-896.45 1224.14,4 -4,4"/>
<!-- N16 -->
<g id="node1" class="node">
<title>N16</title>
<polygon fill="#321543" stroke="#321543" points="649.89,-648.99 649.89,-663.9 472.32,-674.45 221.19,-674.45 43.61,-663.9 43.61,-648.99 221.19,-638.45 472.32,-638.45 649.89,-648.99"/>
<polygon fill="none" stroke="#321543" points="653.89,-645.22 653.89,-667.67 472.44,-678.45 221.07,-678.45 39.61,-667.67 39.61,-645.22 221.07,-634.45 472.44,-634.45 653.89,-645.22"/>
<polygon fill="none" stroke="#321543" points="657.89,-641.45 657.89,-671.44 472.56,-682.45 220.95,-682.45 35.61,-671.44 35.61,-641.45 220.95,-630.45 472.56,-630.45 657.89,-641.45"/>
<text text-anchor="middle" x="346.75" y="-651.77" font-family="Times,serif" font-size="14.00" fill="#ffffff">nixos&#45;system&#45;iron&#45;sp&#45;xfce&#45;25.05pre&#45;git.drv (217.9 KB)</text>
</g>
<!-- N8 -->
<g id="node15" class="node">
<title>N8</title>
<polygon fill="#4776ee" stroke="#4776ee" points="911.64,-674.45 760.64,-674.45 760.64,-638.45 911.64,-638.45 911.64,-674.45"/>
<text text-anchor="middle" x="836.14" y="-651.77" font-family="Times,serif" font-size="14.00" fill="#000000">etc.drv (186.0 MB)</text>
</g>
<!-- N16&#45;&gt;N8 -->
<g id="edge17" class="edge">
<title>N16&#45;&gt;N8</title>
<path fill="none" stroke="black" d="M658.15,-656.45C691.12,-656.45 722.32,-656.45 749.08,-656.45"/>
<polygon fill="black" stroke="black" points="748.76,-659.95 758.76,-656.45 748.76,-652.95 748.76,-659.95"/>
</g>
<!-- N2 -->
<g id="node2" class="node">
<title>N2</title>
<polygon fill="#f4c63a" stroke="#f4c63a" points="423.82,-788.99 423.82,-803.9 378.68,-814.45 314.83,-814.45 269.69,-803.9 269.69,-788.99 314.83,-778.45 378.68,-778.45 423.82,-788.99"/>
<polygon fill="none" stroke="#f4c63a" points="427.82,-785.82 427.82,-807.08 379.14,-818.45 314.37,-818.45 265.69,-807.08 265.69,-785.82 314.37,-774.45 379.14,-774.45 427.82,-785.82"/>
<polygon fill="none" stroke="#f4c63a" points="431.82,-782.64 431.82,-810.25 379.6,-822.45 313.91,-822.45 261.69,-810.25 261.69,-782.64 313.91,-770.45 379.6,-770.45 431.82,-782.64"/>
<text text-anchor="middle" x="346.75" y="-791.77" font-family="Times,serif" font-size="14.00" fill="#000000">etc (3.7 GB)</text>
</g>
<!-- N6 -->
<g id="node8" class="node">
<title>N6</title>
<polygon fill="#21c5e1" stroke="#21c5e1" points="472.22,-718.99 472.22,-733.9 398.72,-744.45 294.78,-744.45 221.28,-733.9 221.28,-718.99 294.78,-708.45 398.72,-708.45 472.22,-718.99"/>
<polygon fill="none" stroke="#21c5e1" points="476.22,-715.52 476.22,-737.37 399.01,-748.45 294.5,-748.45 217.28,-737.37 217.28,-715.52 294.5,-704.45 399.01,-704.45 476.22,-715.52"/>
<polygon fill="none" stroke="#21c5e1" points="480.22,-712.06 480.22,-740.84 399.3,-752.45 294.21,-752.45 213.28,-740.84 213.28,-712.06 294.21,-700.45 399.3,-700.45 480.22,-712.06"/>
<text text-anchor="middle" x="346.75" y="-721.77" font-family="Times,serif" font-size="14.00" fill="#000000">firmware (643.8 MB)</text>
</g>
<!-- N2&#45;&gt;N6 -->
<g id="edge7" class="edge">
<title>N2&#45;&gt;N6</title>
<path fill="none" stroke="black" d="M346.75,-770.13C346.75,-768.13 346.75,-766.13 346.75,-764.14"/>
<polygon fill="black" stroke="black" points="350.25,-764.21 346.75,-754.21 343.25,-764.21 350.25,-764.21"/>
</g>
<!-- N4 -->
<g id="node10" class="node">
<title>N4</title>
<polygon fill="#7a0403" stroke="#7a0403" points="473.93,-578.99 473.93,-593.9 399.43,-604.45 294.07,-604.45 219.57,-593.9 219.57,-578.99 294.07,-568.45 399.43,-568.45 473.93,-578.99"/>
<polygon fill="none" stroke="#7a0403" points="477.93,-575.52 477.93,-597.38 399.71,-608.45 293.79,-608.45 215.57,-597.38 215.57,-575.52 293.79,-564.45 399.71,-564.45 477.93,-575.52"/>
<polygon fill="none" stroke="#7a0403" points="481.93,-572.04 481.93,-600.85 400,-612.45 293.51,-612.45 211.57,-600.85 211.57,-572.04 293.51,-560.45 400,-560.45 481.93,-572.04"/>
<text text-anchor="middle" x="346.75" y="-581.77" font-family="Times,serif" font-size="14.00" fill="#ffffff">system&#45;path (8.9 GB)</text>
</g>
<!-- N2&#45;&gt;N4 -->
<g id="edge8" class="edge">
<title>N2&#45;&gt;N4</title>
<path fill="none" stroke="black" d="M274.5,-813.69C193.99,-828.06 68.46,-834.71 17.61,-752.45 3.36,-729.38 3.36,-653.51 17.61,-630.45 62.05,-558.55 163.53,-554.57 242.15,-564.3"/>
<polygon fill="black" stroke="black" points="241.21,-567.7 251.59,-565.56 242.14,-560.76 241.21,-567.7"/>
</g>
<!-- N2&#45;&gt;N8 -->
<g id="edge9" class="edge">
<title>N2&#45;&gt;N8</title>
<path fill="none" stroke="black" d="M432.08,-796.43C495.65,-794.17 584.17,-786.17 657.89,-761.45 712.45,-743.15 768.43,-706.38 802.51,-681.59"/>
<polygon fill="black" stroke="black" points="804.33,-684.59 810.3,-675.83 800.18,-678.96 804.33,-684.59"/>
</g>
<!-- N3 -->
<g id="node3" class="node">
<title>N3</title>
<polygon fill="#434eba" stroke="#434eba" points="495,-158.99 495,-173.9 408.16,-184.45 285.35,-184.45 198.5,-173.9 198.5,-158.99 285.35,-148.45 408.16,-148.45 495,-158.99"/>
<polygon fill="none" stroke="#434eba" points="499,-155.45 499,-177.45 408.4,-188.45 285.1,-188.45 194.5,-177.45 194.5,-155.45 285.1,-144.45 408.4,-144.45 499,-155.45"/>
<polygon fill="none" stroke="#434eba" points="503,-151.9 503,-180.99 408.64,-192.45 284.86,-192.45 190.5,-180.99 190.5,-151.9 284.86,-140.45 408.64,-140.45 503,-151.9"/>
<text text-anchor="middle" x="346.75" y="-161.77" font-family="Times,serif" font-size="14.00" fill="#ffffff">install&#45;grub.sh (65.1 MB)</text>
</g>
<!-- N11 -->
<g id="node13" class="node">
<title>N11</title>
<polygon fill="#3d358c" stroke="#3d358c" points="522.34,-298.99 522.34,-313.9 419.48,-324.45 274.02,-324.45 171.17,-313.9 171.17,-298.99 274.02,-288.45 419.48,-288.45 522.34,-298.99"/>
<polygon fill="none" stroke="#3d358c" points="526.34,-295.38 526.34,-317.51 419.69,-328.45 273.82,-328.45 167.17,-317.51 167.17,-295.38 273.82,-284.45 419.69,-284.45 526.34,-295.38"/>
<polygon fill="none" stroke="#3d358c" points="530.34,-291.77 530.34,-321.12 419.89,-332.45 273.62,-332.45 163.17,-321.12 163.17,-291.77 273.62,-280.45 419.89,-280.45 530.34,-291.77"/>
<text text-anchor="middle" x="346.75" y="-301.77" font-family="Times,serif" font-size="14.00" fill="#ffffff">util&#45;linux&#45;2.39.4&#45;bin (20.8 MB)</text>
</g>
<!-- N3&#45;&gt;N11 -->
<g id="edge6" class="edge">
<title>N3&#45;&gt;N11</title>
<path fill="none" stroke="black" d="M245.59,-144.73C166.51,-134.47 62.7,-137.5 17.61,-210.45 -22.34,-275.1 59.44,-299.14 151.46,-307"/>
<polygon fill="black" stroke="black" points="150.97,-310.47 161.22,-307.76 151.52,-303.49 150.97,-310.47"/>
</g>
<!-- N10 -->
<g id="node17" class="node">
<title>N10</title>
<polygon fill="#434cb6" stroke="#434cb6" points="1202.14,-227.45 1032.39,-227.45 1032.39,-191.45 1202.14,-191.45 1202.14,-227.45"/>
<text text-anchor="middle" x="1117.27" y="-204.77" font-family="Times,serif" font-size="14.00" fill="#ffffff">perl&#45;5.40.0 (59.5 MB)</text>
</g>
<!-- N3&#45;&gt;N10 -->
<g id="edge5" class="edge">
<title>N3&#45;&gt;N10</title>
<path fill="none" stroke="black" d="M503.27,-175.15C658.14,-183.81 890.94,-196.84 1020.53,-204.09"/>
<polygon fill="black" stroke="black" points="1020.29,-207.58 1030.47,-204.65 1020.68,-200.59 1020.29,-207.58"/>
</g>
<!-- N15 -->
<g id="node4" class="node">
<title>N15</title>
<polygon fill="#38276d" stroke="#38276d" points="522.34,-438.99 522.34,-453.9 419.48,-464.45 274.02,-464.45 171.17,-453.9 171.17,-438.99 274.02,-428.45 419.48,-428.45 522.34,-438.99"/>
<polygon fill="none" stroke="#38276d" points="526.34,-435.38 526.34,-457.51 419.69,-468.45 273.82,-468.45 167.17,-457.51 167.17,-435.38 273.82,-424.45 419.69,-424.45 526.34,-435.38"/>
<polygon fill="none" stroke="#38276d" points="530.34,-431.77 530.34,-461.12 419.89,-472.45 273.62,-472.45 163.17,-461.12 163.17,-431.77 273.62,-420.45 419.89,-420.45 530.34,-431.77"/>
<text text-anchor="middle" x="346.75" y="-441.77" font-family="Times,serif" font-size="14.00" fill="#ffffff">linux&#45;6.6.66&#45;modules (7.2 MB)</text>
</g>
<!-- N1 -->
<g id="node12" class="node">
<title>N1</title>
<polygon fill="#4669e1" stroke="#4669e1" points="487.03,-368.99 487.03,-383.9 404.86,-394.45 288.65,-394.45 206.48,-383.9 206.48,-368.99 288.65,-358.45 404.86,-358.45 487.03,-368.99"/>
<polygon fill="none" stroke="#4669e1" points="491.03,-365.47 491.03,-387.42 405.11,-398.45 288.39,-398.45 202.48,-387.42 202.48,-365.47 288.39,-354.45 405.11,-354.45 491.03,-365.47"/>
<polygon fill="none" stroke="#4669e1" points="495.03,-361.95 495.03,-390.94 405.37,-402.45 288.14,-402.45 198.48,-390.94 198.48,-361.95 288.14,-350.45 405.37,-350.45 495.03,-361.95"/>
<text text-anchor="middle" x="346.75" y="-371.77" font-family="Times,serif" font-size="14.00" fill="#ffffff">linux&#45;6.6.66 (136.9 MB)</text>
</g>
<!-- N15&#45;&gt;N1 -->
<g id="edge4" class="edge">
<title>N15&#45;&gt;N1</title>
<path fill="none" stroke="black" d="M346.75,-420.13C346.75,-418.13 346.75,-416.13 346.75,-414.14"/>
<polygon fill="black" stroke="black" points="350.25,-414.21 346.75,-404.21 343.25,-414.21 350.25,-414.21"/>
</g>
<!-- N9 -->
<g id="node16" class="node">
<title>N9</title>
<polygon fill="#57fb75" stroke="#57fb75" points="978.39,-464.45 693.89,-464.45 693.89,-428.45 978.39,-428.45 978.39,-464.45"/>
<text text-anchor="middle" x="836.14" y="-441.77" font-family="Times,serif" font-size="14.00" fill="#000000">nvidia&#45;x11&#45;565.77&#45;6.6.66&#45;bin (1.5 GB)</text>
</g>
<!-- N15&#45;&gt;N9 -->
<g id="edge3" class="edge">
<title>N15&#45;&gt;N9</title>
<path fill="none" stroke="black" d="M530.63,-446.45C580.51,-446.45 634.04,-446.45 682.08,-446.45"/>
<polygon fill="black" stroke="black" points="682.01,-449.95 692.01,-446.45 682.01,-442.95 682.01,-449.95"/>
</g>
<!-- N14 -->
<g id="node5" class="node">
<title>N14</title>
<polygon fill="#33184a" stroke="#33184a" points="502.4,-228.99 502.4,-243.9 411.23,-254.45 282.28,-254.45 191.1,-243.9 191.1,-228.99 282.28,-218.45 411.23,-218.45 502.4,-228.99"/>
<polygon fill="none" stroke="#33184a" points="506.4,-225.43 506.4,-247.47 411.46,-258.45 282.05,-258.45 187.1,-247.47 187.1,-225.43 282.05,-214.45 411.46,-214.45 506.4,-225.43"/>
<polygon fill="none" stroke="#33184a" points="510.4,-221.86 510.4,-251.03 411.69,-262.45 281.82,-262.45 183.1,-251.03 183.1,-221.86 281.82,-210.45 411.69,-210.45 510.4,-221.86"/>
<text text-anchor="middle" x="346.75" y="-231.77" font-family="Times,serif" font-size="14.00" fill="#ffffff">perl&#45;5.40.0&#45;env (739.7 KB)</text>
</g>
<!-- N14&#45;&gt;N10 -->
<g id="edge2" class="edge">
<title>N14&#45;&gt;N10</title>
<path fill="none" stroke="black" d="M510.74,-230.72C665.67,-225.28 893.41,-217.28 1020.87,-212.8"/>
<polygon fill="black" stroke="black" points="1020.75,-216.3 1030.62,-212.46 1020.5,-209.31 1020.75,-216.3"/>
</g>
<!-- N13 -->
<g id="node6" class="node">
<title>N13</title>
<polygon fill="#30123b" stroke="#30123b" points="463.68,-508.99 463.68,-523.9 395.19,-534.45 298.32,-534.45 229.82,-523.9 229.82,-508.99 298.32,-498.45 395.19,-498.45 463.68,-508.99"/>
<polygon fill="none" stroke="#30123b" points="467.68,-505.56 467.68,-527.33 395.49,-538.45 298.01,-538.45 225.82,-527.33 225.82,-505.56 298.01,-494.45 395.49,-494.45 467.68,-505.56"/>
<polygon fill="none" stroke="#30123b" points="471.68,-502.13 471.68,-530.76 395.8,-542.45 297.71,-542.45 221.82,-530.76 221.82,-502.13 297.71,-490.45 395.8,-490.45 471.68,-502.13"/>
<text text-anchor="middle" x="346.75" y="-511.77" font-family="Times,serif" font-size="14.00" fill="#ffffff">local&#45;cmds (2.2 KB)</text>
</g>
<!-- N13&#45;&gt;N11 -->
<g id="edge1" class="edge">
<title>N13&#45;&gt;N11</title>
<path fill="none" stroke="black" d="M256.96,-536.57C176.77,-548.55 64.89,-548.95 17.61,-472.45 3.36,-449.38 3.36,-373.51 17.61,-350.45 59.07,-283.37 150.18,-275.41 226.05,-282.54"/>
<polygon fill="black" stroke="black" points="225.31,-285.98 235.62,-283.54 226.04,-279.02 225.31,-285.98"/>
</g>
<!-- N17 -->
<g id="node7" class="node">
<title>N17</title>
<polygon fill="#476ee7" stroke="#476ee7" points="497.28,-858.99 497.28,-873.9 409.1,-884.45 284.4,-884.45 196.23,-873.9 196.23,-858.99 284.4,-848.45 409.1,-848.45 497.28,-858.99"/>
<polygon fill="none" stroke="#476ee7" points="501.28,-855.44 501.28,-877.45 409.34,-888.45 284.16,-888.45 192.23,-877.45 192.23,-855.44 284.16,-844.45 409.34,-844.45 501.28,-855.44"/>
<polygon fill="none" stroke="#476ee7" points="505.28,-851.89 505.28,-881 409.58,-892.45 283.93,-892.45 188.23,-881 188.23,-851.89 283.93,-840.45 409.58,-840.45 505.28,-851.89"/>
<text text-anchor="middle" x="346.75" y="-861.77" font-family="Times,serif" font-size="14.00" fill="#ffffff">{filtered out} (149.2 MB)</text>
</g>
<!-- N5 -->
<g id="node9" class="node">
<title>N5</title>
<polygon fill="#4664da" stroke="#4664da" points="502.97,-18.99 502.97,-33.9 411.46,-44.45 282.04,-44.45 190.53,-33.9 190.53,-18.99 282.04,-8.45 411.46,-8.45 502.97,-18.99"/>
<polygon fill="none" stroke="#4664da" points="506.97,-15.42 506.97,-37.47 411.69,-48.45 281.81,-48.45 186.53,-37.47 186.53,-15.42 281.81,-4.45 411.69,-4.45 506.97,-15.42"/>
<polygon fill="none" stroke="#4664da" points="510.97,-11.86 510.97,-41.03 411.92,-52.45 281.58,-52.45 182.53,-41.03 182.53,-11.86 281.58,-0.45 411.92,-0.45 510.97,-11.86"/>
<text text-anchor="middle" x="346.75" y="-21.77" font-family="Times,serif" font-size="14.00" fill="#ffffff">systemd&#45;256.8 (119.4 MB)</text>
</g>
<!-- N12 -->
<g id="node11" class="node">
<title>N12</title>
<polygon fill="#36215f" stroke="#36215f" points="491.59,-88.99 491.59,-103.9 406.74,-114.45 286.76,-114.45 201.92,-103.9 201.92,-88.99 286.76,-78.45 406.74,-78.45 491.59,-88.99"/>
<polygon fill="none" stroke="#36215f" points="495.59,-85.46 495.59,-107.44 406.99,-118.45 286.51,-118.45 197.92,-107.44 197.92,-85.46 286.51,-74.45 406.99,-74.45 495.59,-85.46"/>
<polygon fill="none" stroke="#36215f" points="499.59,-81.92 499.59,-110.97 407.24,-122.45 286.27,-122.45 193.92,-110.97 193.92,-81.92 286.27,-70.45 407.24,-70.45 499.59,-81.92"/>
<text text-anchor="middle" x="346.75" y="-91.77" font-family="Times,serif" font-size="14.00" fill="#ffffff">perl&#45;5.40.0&#45;env (4.3 MB)</text>
</g>
<!-- N4&#45;&gt;N12 -->
<g id="edge10" class="edge">
<title>N4&#45;&gt;N12</title>
<path fill="none" stroke="black" d="M253.09,-607.14C173.2,-618.55 64.14,-617.72 17.61,-542.45 -5.87,-504.45 -5.87,-178.44 17.61,-140.45 60.8,-70.57 157.88,-64.85 235.48,-73.51"/>
<polygon fill="black" stroke="black" points="234.93,-76.97 245.28,-74.71 235.78,-70.02 234.93,-76.97"/>
</g>
<!-- N4&#45;&gt;N11 -->
<g id="edge12" class="edge">
<title>N4&#45;&gt;N11</title>
<path fill="none" stroke="black" d="M253.09,-607.14C173.2,-618.55 64.14,-617.72 17.61,-542.45 -4.82,-506.15 -4.82,-386.74 17.61,-350.45 59.07,-283.37 150.18,-275.41 226.05,-282.54"/>
<polygon fill="black" stroke="black" points="225.31,-285.98 235.62,-283.54 226.04,-279.02 225.31,-285.98"/>
</g>
<!-- N7 -->
<g id="node14" class="node">
<title>N7</title>
<polygon fill="#4451bf" stroke="#4451bf" points="1220.14,-651.45 1014.39,-651.45 1014.39,-615.45 1220.14,-615.45 1220.14,-651.45"/>
<text text-anchor="middle" x="1117.27" y="-628.77" font-family="Times,serif" font-size="14.00" fill="#ffffff">gnupg&#45;2.4.5.drv (68.2 MB)</text>
</g>
<!-- N4&#45;&gt;N7 -->
<g id="edge13" class="edge">
<title>N4&#45;&gt;N7</title>
<path fill="none" stroke="black" d="M482.06,-594.66C629.58,-603.68 863.93,-618.01 1002.66,-626.5"/>
<polygon fill="black" stroke="black" points="1002.42,-629.99 1012.62,-627.11 1002.85,-623 1002.42,-629.99"/>
</g>
<!-- N4&#45;&gt;N9 -->
<g id="edge11" class="edge">
<title>N4&#45;&gt;N9</title>
<path fill="none" stroke="black" d="M482.09,-583.63C537.66,-579.32 602.03,-570.18 657.89,-551.45 712.45,-533.15 768.43,-496.38 802.51,-471.59"/>
<polygon fill="black" stroke="black" points="804.33,-474.59 810.3,-465.83 800.18,-468.96 804.33,-474.59"/>
</g>
<!-- N12&#45;&gt;N10 -->
<g id="edge14" class="edge">
<title>N12&#45;&gt;N10</title>
<path fill="none" stroke="black" d="M496.21,-111.81C547.49,-117.49 605.28,-124.29 657.89,-131.45 800.82,-150.87 836.38,-157.25 978.39,-182.45 992.27,-184.91 1006.9,-187.63 1021.25,-190.38"/>
<polygon fill="black" stroke="black" points="1020.18,-193.74 1030.66,-192.19 1021.5,-186.86 1020.18,-193.74"/>
</g>
<!-- N11&#45;&gt;N5 -->
<g id="edge16" class="edge">
<title>N11&#45;&gt;N5</title>
<path fill="none" stroke="black" d="M237.13,-329.19C159.26,-338.12 61.11,-332.82 17.61,-262.45 -4.82,-226.15 -4.82,-106.74 17.61,-70.45 60.15,-1.62 154.97,4.97 231.97,-3.13"/>
<polygon fill="black" stroke="black" points="231.35,-6.58 241.69,-4.25 232.15,0.37 231.35,-6.58"/>
</g>
<!-- N8&#45;&gt;N7 -->
<g id="edge18" class="edge">
<title>N8&#45;&gt;N7</title>
<path fill="none" stroke="black" d="M911.94,-650.28C939.85,-647.98 972.18,-645.32 1002.79,-642.8"/>
<polygon fill="black" stroke="black" points="1002.79,-646.31 1012.47,-642 1002.21,-639.33 1002.79,-646.31"/>
</g>
<!-- N9&#45;&gt;N10 -->
<g id="edge15" class="edge">
<title>N9&#45;&gt;N10</title>
<path fill="none" stroke="black" d="M858.58,-428.24C907.9,-386.37 1029.51,-283.11 1086.23,-234.95"/>
<polygon fill="black" stroke="black" points="1088.25,-237.83 1093.6,-228.69 1083.72,-232.5 1088.25,-237.83"/>
</g>
</g>
</svg>
